<svg width="99" height="44" viewBox="0 0 99 44" fill="none" xmlns="http://www.w3.org/2000/svg"><path d="M.659.137h2.844v10.815H.66V.137zm14.426 0v10.815H12.98L8.094 4.815v6.137H5.446V.137H7.52l4.887 6.106V.137h2.679zm5.85 10.952a9.122 9.122 0 01-2.391-.32c-.787-.212-1.428-.5-1.922-.865l.893-2.02a6.91 6.91 0 001.664.774c.596.172 1.19.258 1.786.258.605 0 1.07-.08 1.392-.243.323-.172.484-.41.484-.714 0-.273-.146-.496-.439-.668-.292-.182-.842-.36-1.649-.532-1.019-.202-1.81-.45-2.375-.744-.565-.304-.964-.658-1.196-1.063-.222-.405-.333-.896-.333-1.474a3 3 0 01.56-1.777c.373-.536.898-.952 1.574-1.245C19.659.152 20.43 0 21.298 0c.777 0 1.528.111 2.254.334.737.213 1.312.496 1.725.85L24.4 3.206a5.65 5.65 0 00-1.498-.76 4.768 4.768 0 00-1.574-.273c-.514 0-.928.101-1.24.304-.313.192-.47.456-.47.79a.65.65 0 00.167.456c.11.121.317.243.62.364.303.111.757.233 1.362.365.978.212 1.745.47 2.3.774.565.294.963.643 1.195 1.048.232.395.348.871.348 1.428 0 1.053-.409 1.884-1.226 2.491-.817.598-1.967.897-3.45.897zm11.391 0c-1.1 0-2.058-.223-2.875-.669a4.677 4.677 0 01-1.89-1.944c-.435-.84-.651-1.823-.651-2.947s.221-2.101.665-2.932A4.628 4.628 0 0129.452.684C30.267.228 31.226 0 32.325 0c1.1 0 2.053.228 2.86.684a4.51 4.51 0 011.876 1.913c.434.83.651 1.808.651 2.932 0 1.124-.217 2.106-.65 2.947a4.584 4.584 0 01-1.877 1.944c-.807.446-1.76.669-2.86.669zm0-2.173c.807 0 1.438-.288 1.892-.865.464-.578.696-1.418.696-2.522 0-1.094-.232-1.924-.696-2.491-.454-.577-1.085-.866-1.892-.866-.807 0-1.437.284-1.891.85-.454.568-.68 1.403-.68 2.507 0 1.114.226 1.96.68 2.537.454.567 1.084.85 1.891.85zM50.282.137v10.815h-2.481L47.785 6l-2.042 4.952h-1.8l-2.06-4.892v4.89h-2.466V.138h2.224l3.223 7.382L48.073.137h2.21zm11.614 0v10.815h-2.103l-4.887-6.137v6.137h-2.648V.137h2.073l4.887 6.106V.137h2.678zm1.946 0h2.845v10.815h-2.845V.137zm12.051 8.582H71.11l-.953 2.233h-2.844L72.352.137h2.24l5.053 10.815h-2.799l-.953-2.233zm-.923-2.142L73.502 3.16l-1.468 3.418h2.936zM.659 16.592h4.403c1.19 0 2.214.218 3.071.654.868.425 1.529 1.043 1.983 1.853.463.81.696 1.772.696 2.886 0 1.124-.227 2.096-.681 2.916-.454.81-1.115 1.433-1.983 1.869-.857.425-1.886.638-3.086.638H.659V16.592zm4.206 8.537c1.05 0 1.83-.258 2.345-.775.525-.526.787-1.316.787-2.37 0-2.075-1.044-3.113-3.132-3.113H3.503v6.258h1.362zm7.615-8.537h2.844v10.816H12.48V16.592zm14.35 4.709v5.423a8.695 8.695 0 01-1.937.608 11.04 11.04 0 01-2.179.212c-1.17 0-2.189-.223-3.056-.668a4.703 4.703 0 01-1.982-1.914c-.464-.84-.696-1.833-.696-2.977 0-1.114.232-2.086.696-2.917a4.7 4.7 0 011.967-1.929c.847-.456 1.836-.683 2.965-.683a7.73 7.73 0 012.194.303c.697.203 1.261.482 1.695.836l-.893 2.02a5.66 5.66 0 00-1.437-.698 4.597 4.597 0 00-1.468-.228c-.958 0-1.674.273-2.148.82-.464.537-.696 1.362-.696 2.476 0 1.154.242 2.01.726 2.567.494.557 1.25.835 2.27.835.474 0 .948-.05 1.422-.152V23.23h-1.876v-1.929h4.433zm1.8-4.709h2.845v10.816H28.63V16.592zm7.209 2.309H32.63v-2.309h9.29v2.31h-3.207v8.506h-2.875V18.9zm13.087 6.274h-4.782l-.953 2.233h-2.844l5.038-10.816h2.24l5.053 10.816H49.88l-.953-2.233zm-.923-2.142l-1.468-3.418-1.467 3.418h2.935zm5.289-6.441h2.845V25.1h4.554v2.309h-7.399V16.592zM5.894 44c-1.12 0-2.098-.228-2.936-.684a4.847 4.847 0 01-1.921-1.959c-.444-.84-.666-1.813-.666-2.916 0-1.094.222-2.056.666-2.887a4.748 4.748 0 011.921-1.944c.838-.466 1.816-.699 2.936-.699.706 0 1.387.107 2.043.32.665.212 1.2.5 1.603.865l-.862 2.02c-.878-.638-1.785-.956-2.724-.956-.867 0-1.533.278-1.997.835-.464.547-.696 1.362-.696 2.446 0 1.093.232 1.918.696 2.475.464.557 1.13.836 1.997.836.939 0 1.846-.32 2.724-.957l.862 2.02c-.403.365-.938.653-1.603.866A6.578 6.578 0 015.894 44zm10.016 0c-1.1 0-2.058-.223-2.875-.668a4.678 4.678 0 01-1.892-1.945c-.433-.84-.65-1.822-.65-2.947 0-1.123.222-2.1.666-2.931a4.628 4.628 0 011.876-1.914c.817-.456 1.775-.684 2.875-.684s2.053.228 2.86.684a4.51 4.51 0 011.876 1.914c.434.83.65 1.807.65 2.931 0 1.125-.216 2.107-.65 2.947a4.583 4.583 0 01-1.876 1.945c-.807.445-1.76.668-2.86.668zm0-2.172c.807 0 1.437-.289 1.891-.866.464-.577.696-1.418.696-2.522 0-1.093-.232-1.923-.696-2.49-.454-.578-1.084-.867-1.891-.867-.807 0-1.438.284-1.892.851-.454.567-.68 1.403-.68 2.507 0 1.113.227 1.959.68 2.536.454.567 1.085.85 1.892.85zm16.685-8.78v10.815H30.49l-4.887-6.136v6.136h-2.648V33.048h2.073l4.887 6.106v-6.106h2.679zM38.445 44a9.122 9.122 0 01-2.391-.319c-.787-.213-1.428-.501-1.922-.866l.893-2.02a6.91 6.91 0 001.664.775c.596.172 1.19.258 1.786.258.605 0 1.07-.081 1.392-.243.323-.172.484-.41.484-.714 0-.274-.146-.496-.439-.669-.292-.182-.842-.359-1.649-.531-1.019-.203-1.81-.45-2.375-.744-.565-.304-.964-.659-1.196-1.064-.222-.405-.333-.896-.333-1.473a3 3 0 01.56-1.777c.373-.537.898-.952 1.574-1.246.675-.304 1.447-.456 2.315-.456.776 0 1.528.112 2.254.335.737.212 1.312.496 1.725.85l-.877 2.02a5.647 5.647 0 00-1.498-.759 4.767 4.767 0 00-1.574-.273c-.514 0-.928.1-1.24.303-.313.193-.47.456-.47.79a.65.65 0 00.167.456c.11.121.317.243.62.364.303.112.757.233 1.362.365.978.213 1.745.47 2.3.775.565.293.963.643 1.195 1.048.232.395.348.87.348 1.428 0 1.053-.408 1.883-1.225 2.49-.818.598-1.968.897-3.45.897zm10.998 0c-1.574 0-2.764-.395-3.571-1.185-.807-.8-1.21-1.97-1.21-3.509v-6.258h2.769v6.365c0 .78.171 1.377.514 1.792.353.415.852.623 1.498.623.635 0 1.125-.208 1.468-.623.343-.425.514-1.023.514-1.792v-6.365h2.8v6.258c0 1.52-.414 2.684-1.241 3.494-.818.8-1.998 1.2-3.541 1.2zm6.642-10.952h2.844v8.506h4.555v2.31h-7.4V33.047zm9.277 2.309h-3.208v-2.309h9.29v2.309h-3.207v8.506h-2.875v-8.506zm7.228-2.309h2.845v10.815H72.59V33.048zm14.426 0v10.815h-2.103l-4.888-6.136v6.136h-2.648V33.048h2.073l4.888 6.106v-6.106h2.678zm11.509 4.709v5.423a8.695 8.695 0 01-1.937.607A11.04 11.04 0 0194.41 44c-1.17 0-2.189-.223-3.056-.668a4.703 4.703 0 01-1.982-1.914c-.464-.84-.696-1.833-.696-2.977 0-1.114.232-2.087.696-2.917a4.7 4.7 0 011.967-1.93c.847-.455 1.836-.683 2.965-.683a7.73 7.73 0 012.194.304c.696.203 1.261.481 1.695.836l-.893 2.02a5.663 5.663 0 00-1.437-.699 4.597 4.597 0 00-1.468-.228c-.958 0-1.674.274-2.148.82-.464.537-.696 1.363-.696 2.477 0 1.154.242 2.01.726 2.567.494.557 1.25.835 2.27.835.474 0 .948-.05 1.422-.152v-2.005h-1.876v-1.929h4.433z" fill="#fff"/></svg>