<svg width="52" height="52" viewBox="0 0 52 52" fill="none" xmlns="http://www.w3.org/2000/svg"><path d="M8.809 34.077a16.616 16.616 0 002.48 8.728 17.375 17.375 0 006.752 6.268 18.109 18.109 0 009.12 2.038 18.035 18.035 0 008.911-2.765 17.234 17.234 0 006.19-6.79 16.556 16.556 0 001.721-8.896 16.698 16.698 0 00-3.233-8.494 17.517 17.517 0 00-7.276-5.695V12.78c.701 0 1.373-.27 1.869-.749a2.515 2.515 0 00.774-1.807c0-.678-.279-1.328-.774-1.807a2.689 2.689 0 00-1.869-.749H31.93l1.047-4.557a2.475 2.475 0 00-.006-1.134 2.523 2.523 0 00-.512-1.02 2.631 2.631 0 00-.919-.705A2.718 2.718 0 0030.398 0h-7.94c-.396 0-.787.086-1.144.251a2.63 2.63 0 00-.918.705 2.522 2.522 0 00-.513 1.02c-.09.373-.091.76-.006 1.134l1.048 4.557H19.38c-.701 0-1.373.27-1.87.749a2.514 2.514 0 00-.773 1.807c0 .678.278 1.328.774 1.807.495.48 1.168.749 1.869.749v5.692c-3.148 1.316-5.828 3.496-7.707 6.27a16.545 16.545 0 00-2.864 9.336zm17.618 15.335c-4.204-.005-8.234-1.622-11.207-4.497-2.973-2.874-4.645-6.772-4.65-10.838 0-.067.008-.133.008-.2l2.06-.929a14.861 14.861 0 016.636-1.293c2.287.084 4.52.693 6.517 1.776a16.54 16.54 0 007.7 2.015c2.7.036 5.368-.585 7.755-1.807l1-.51c.02.313.037.628.037.946-.004 4.066-1.676 7.964-4.648 10.84-2.973 2.875-7.004 4.492-11.208 4.497zm15.592-18.09l-1.593.81a14.784 14.784 0 01-7.142 1.599l.403-.387a8.339 8.339 0 012.9-1.81A8.56 8.56 0 0140 31.021a18.98 18.98 0 011.995.175l.025.125zM21.598 2.74a.824.824 0 01.172-.718.906.906 0 01.687-.32h7.94a.906.906 0 01.687.32.84.84 0 01.172.718l-1.13 4.926h-7.399l-1.13-4.926zm-3.1 7.482c0-.226.093-.442.259-.602a.895.895 0 01.623-.25h14.094c.234 0 .458.09.623.25.165.16.258.376.258.602a.838.838 0 01-.258.603.897.897 0 01-.623.25H19.38a.897.897 0 01-.623-.25.838.838 0 01-.258-.603zm10.378 2.556l-.529 2.556h-3.841l-.529-2.556h4.899zm-8.29 7.051a.876.876 0 00.403-.313.832.832 0 00.152-.478v-6.26h1.04l.74 3.578a.85.85 0 00.306.49.9.9 0 00.557.192h5.286a.9.9 0 00.557-.192.847.847 0 00.306-.49l.74-3.578h1.04v6.26c0 .17.052.337.151.478.1.141.24.25.404.313a15.814 15.814 0 015.757 3.782 15.158 15.158 0 013.515 5.809 34.25 34.25 0 00-1.439-.101 10.353 10.353 0 00-4.136.617 10.086 10.086 0 00-3.516 2.194l-1.42 1.36a14.758 14.758 0 01-4.374-1.544 16.621 16.621 0 00-7.314-1.993 16.677 16.677 0 00-7.45 1.45l-1.161.525a14.995 14.995 0 013.232-7.341 15.739 15.739 0 016.623-4.758z" fill="#FF3743"/><path d="M37.88 15.335c0 .674.206 1.333.593 1.893s.938.997 1.582 1.255a3.635 3.635 0 002.035.194 3.563 3.563 0 001.805-.933A3.375 3.375 0 0044.859 16a3.305 3.305 0 00-.2-1.97 3.436 3.436 0 00-1.298-1.529 3.61 3.61 0 00-1.958-.574c-.934 0-1.83.36-2.492.998a3.352 3.352 0 00-1.032 2.41zm3.523-1.704c.349 0 .69.1.979.287.29.187.515.454.649.765.133.311.168.654.1.984-.068.33-.236.634-.482.873-.247.238-.56.4-.902.466a1.818 1.818 0 01-1.018-.097 1.75 1.75 0 01-.79-.627 1.664 1.664 0 01.218-2.152 1.79 1.79 0 011.246-.499zm1.761-9.371c0 .842.258 1.666.742 2.366a4.375 4.375 0 001.977 1.569c.805.322 1.69.407 2.545.242a4.453 4.453 0 002.255-1.165A4.218 4.218 0 0051.89 5.09a4.13 4.13 0 00-.251-2.461A4.294 4.294 0 0050.016.718 4.512 4.512 0 0047.569 0a4.487 4.487 0 00-3.113 1.25 4.195 4.195 0 00-1.292 3.01zm4.405-2.556c.522 0 1.033.15 1.468.43.434.281.773.68.973 1.148.2.467.253.98.15 1.476a2.531 2.531 0 01-.723 1.309c-.37.357-.84.6-1.353.7a2.726 2.726 0 01-1.527-.146 2.625 2.625 0 01-1.186-.941 2.496 2.496 0 01-.445-1.42c0-.678.278-1.328.774-1.808a2.689 2.689 0 011.869-.748zM10.57 7.667c-.696 0-1.378.2-1.957.575A3.435 3.435 0 007.315 9.77a3.304 3.304 0 00-.2 1.969c.136.66.471 1.268.964 1.745.493.476 1.12.8 1.804.932a3.635 3.635 0 002.036-.194 3.501 3.501 0 001.581-1.255c.387-.56.594-1.219.594-1.893 0-.904-.371-1.77-1.032-2.41a3.585 3.585 0 00-2.492-.998zm0 5.112c-.348 0-.689-.1-.978-.287a1.717 1.717 0 01-.65-.765 1.652 1.652 0 01-.1-.984c.069-.33.236-.634.483-.873.246-.238.56-.4.902-.466a1.817 1.817 0 011.018.097c.322.129.597.347.79.628a1.664 1.664 0 01-.219 2.15c-.33.32-.778.5-1.246.5zM5.285 23.854c0-.505-.155-1-.445-1.42a2.625 2.625 0 00-1.186-.941 2.726 2.726 0 00-1.527-.146 2.673 2.673 0 00-1.353.7 2.53 2.53 0 00-.723 1.308c-.102.496-.05 1.01.15 1.477.2.467.539.866.974 1.147.434.281.945.43 1.468.43.7 0 1.373-.268 1.868-.748a2.511 2.511 0 00.774-1.807zm-3.523 0a.83.83 0 01.148-.473.875.875 0 01.396-.314.91.91 0 01.96.185c.123.119.207.27.24.436a.826.826 0 01-.05.492.859.859 0 01-.324.383.903.903 0 01-1.112-.107.838.838 0 01-.258-.602zm13.358 5.452c.73-1.63 1.83-3.08 3.217-4.245a12.426 12.426 0 014.799-2.485l-.47-1.643a14.199 14.199 0 00-5.484 2.839 13.614 13.614 0 00-3.678 4.85l1.616.684zm7.783 7.327c.487 0 .881-.382.881-.852s-.394-.852-.88-.852c-.487 0-.881.381-.881.852 0 .47.394.852.88.852zm13.217 4.259c.486 0 .88-.381.88-.852 0-.47-.394-.852-.88-.852-.487 0-.882.382-.882.852s.395.852.881.852zm-7.93 5.964c.486 0 .88-.381.88-.852 0-.47-.394-.852-.88-.852-.487 0-.881.382-.881.852s.394.852.88.852zm-13.215-5.964c.486 0 .88-.381.88-.852 0-.47-.394-.852-.88-.852-.487 0-.881.382-.881.852s.394.852.88.852z" fill="#FF3743"/></svg>