<svg width="53" height="47" viewBox="0 0 53 47" fill="none" xmlns="http://www.w3.org/2000/svg"><path d="M46.688 2.556c-4.76 0-9.493.693-14.039 2.058L21.406 7.989a52.976 52.976 0 01-15.24 2.234 4.482 4.482 0 01-3.114-1.247 4.19 4.19 0 01-1.29-3.012 4.19 4.19 0 011.29-3.013 4.482 4.482 0 013.114-1.247h4.405v5.963h1.762V.852a.838.838 0 00-.258-.602.896.896 0 00-.623-.25H6.166a6.281 6.281 0 00-4.358 1.749A5.873 5.873 0 000 5.964v32.373a5.873 5.873 0 001.808 4.215A6.282 6.282 0 006.166 44.3a54.84 54.84 0 0015.762-2.31l11.243-3.375a46.99 46.99 0 018.232-1.67v9.06c0 .225.092.442.258.602.165.16.389.25.622.25 2.803-.004 5.49-1.082 7.472-2.998 1.982-1.917 3.096-4.516 3.1-7.226V8.519a5.872 5.872 0 00-1.809-4.215 6.281 6.281 0 00-4.358-1.748zm4.405 34.077a8.376 8.376 0 01-2.28 5.712 8.93 8.93 0 01-5.649 2.765V14.483h3.524a6.33 6.33 0 002.39-.464 6.163 6.163 0 002.015-1.325v23.939zm-4.405-23.854h-4.405a.896.896 0 00-.622.25.838.838 0 00-.258.602v21.598c-2.969.319-5.9.907-8.754 1.758l-11.243 3.375a52.975 52.975 0 01-15.24 2.234 4.487 4.487 0 01-3.113-1.249 4.195 4.195 0 01-1.291-3.01V10.129a6.154 6.154 0 002.014 1.33c.756.31 1.57.468 2.39.468a54.84 54.84 0 0015.762-2.31L33.171 6.24a47 47 0 0113.517-1.98 4.48 4.48 0 013.114 1.247 4.19 4.19 0 011.29 3.012 4.19 4.19 0 01-1.29 3.012 4.481 4.481 0 01-3.114 1.248z" fill="#FF3743"/><path d="M19.489 29.579c-1.005-.777-1.872-1.448-1.872-2.317 0-.24-.054-.477-.157-.696a1.684 1.684 0 00-.442-.57c-.414-.363-1.674-1.467-9.02-.767a5.57 5.57 0 00-2.754 1.039 5.305 5.305 0 00-1.791 2.274l-.195.47a5.12 5.12 0 00-.23 3.261 5.228 5.228 0 001.06 2.058 5.448 5.448 0 001.863 1.43c2.622 1.231 6.114 2.818 7.863 3.382a3.8 3.8 0 001.165.17 7.104 7.104 0 003.923-1.402c1.508-1.053 3.12-2.835 3.12-4.685 0-1.687-1.345-2.726-2.533-3.647zm-1.617 6.949c-1.29.898-2.629 1.278-3.5 1.001-1.746-.563-5.543-2.309-7.65-3.299a3.654 3.654 0 01-1.845-1.944 3.495 3.495 0 01.018-2.638l.194-.47a3.6 3.6 0 011.214-1.545 3.78 3.78 0 011.869-.706c5.768-.552 7.508.073 7.684.335 0 1.687 1.345 2.726 2.533 3.648 1.004.776 1.87 1.447 1.87 2.316 0 .964-.98 2.322-2.387 3.302zm12.078-7.563c-2.51 0-4.404 1.1-4.404 2.556 0 1.457 1.893 2.556 4.405 2.556 2.511 0 4.404-1.099 4.404-2.556s-1.893-2.556-4.404-2.556zm0 3.408c-1.704 0-2.642-.64-2.642-.852 0-.212.938-.852 2.643-.852 1.705 0 2.643.64 2.643.852 0 .212-.938.852-2.643.852zM8.738 20.26l-.103-1.704a16.4 16.4 0 00-1.85.21l.307 1.68a14.502 14.502 0 011.646-.187zm10.387 1.379a16.134 16.134 0 00-1.55-1.001l-.891 1.47c.476.271.936.57 1.377.894l1.064-1.363zm19.285 2.263l-1.73.315.324 1.674 1.732-.314-.325-1.675zm-26.057-5.128a16.472 16.472 0 00-1.85-.213l-.105 1.704c.552.032 1.101.095 1.645.19l.31-1.68zm22.593 5.756l-1.731.315.325 1.674 1.732-.314-.326-1.675zM15.91 19.82a15.98 15.98 0 00-1.747-.624l-.51 1.63c.529.155 1.048.34 1.554.555l.704-1.56zm6.762 6.04c.573.235 1.16.438 1.756.609l.497-1.634a14.604 14.604 0 01-1.561-.543l-.692 1.567zM4.993 19.176l-1.7.448.463 1.644 1.7-.448-.463-1.644zm26.816 7.66l-.323-1.675c-.543.098-1.092.165-1.643.201l.117 1.7c.62-.04 1.238-.116 1.849-.226zm-3.624-1.464a14.6 14.6 0 01-1.647-.176l-.296 1.68c.612.1 1.23.167 1.85.197l.093-1.701zm-6.305-1.796c-.48-.266-.943-.56-1.386-.879l-1.052 1.369c.5.358 1.02.688 1.56.988l.878-1.478zM39.899 7.917l-2.02 1.953-2.02-1.953-1.246 1.204 2.02 1.954-1.679 1.624a7.074 7.074 0 00-3.242-.772 6.36 6.36 0 00-3.433.864 6.07 6.07 0 00-2.38 2.544 3.832 3.832 0 00-2.654.942 3.586 3.586 0 00-1.223 2.465 3.6 3.6 0 001.258 2.493 3.847 3.847 0 002.706.915 4.338 4.338 0 002.482-.762c1 .508 2.115.77 3.244.762 3.4 0 6.167-2.292 6.167-5.111a4.555 4.555 0 00-.399-1.806 4.685 4.685 0 00-1.09-1.517l1.489-1.436 2.02 1.953 1.245-1.205-2.02-1.953 2.02-1.954L39.9 7.917zm-8.187 12.53a5.22 5.22 0 01-2.842-.812.903.903 0 00-1.137.12 2.414 2.414 0 01-1.747.691 2.075 2.075 0 01-1.457-.42 1.945 1.945 0 01-.745-1.284c.067-.505.334-.965.745-1.283a2.075 2.075 0 011.457-.42c.137.001.272.013.407.035a.905.905 0 00.627-.138.852.852 0 00.364-.514c.384-1.617 2.205-2.791 4.328-2.791 2.43 0 4.405 1.528 4.405 3.407 0 1.88-1.976 3.408-4.405 3.408z" fill="#FF3743"/></svg>