<svg width="53" height="52" viewBox="0 0 53 52" fill="none" xmlns="http://www.w3.org/2000/svg"><path d="M.196 11.393a.841.841 0 00-.176.716l1.357 5.994A49.678 49.678 0 009.29 35.818l-7.784 7.527a2.514 2.514 0 00-.774 1.807c0 .678.279 1.328.774 1.807L4.3 49.661c.496.48 1.168.749 1.869.749.7 0 1.373-.27 1.868-.749l7.13-6.894a52.305 52.305 0 0010.814 8.231.905.905 0 00.897 0c6.212-3.561 11.6-8.319 15.833-13.977a50.19 50.19 0 008.77-18.918l1.356-5.994a.827.827 0 00-.175-.716.904.904 0 00-.686-.318 30.09 30.09 0 01-1.6-.048l2.457-9.979a.825.825 0 00-.235-.794.91.91 0 00-.822-.228l-18.499 4.26a.887.887 0 00-.424.245L26.963.175a.9.9 0 00-1.069 0L19.315 5.04C14.017 8.943 7.543 11.063.882 11.075a.906.906 0 00-.686.318zM11.324 25.08a33.665 33.665 0 01-1.42-4.65l-.733-3.237c4.665-.22 9.151-1.802 12.868-4.537L26.4 9.589l1.417 1.108-13.8 16.99-2.693-2.607zm-.129 2.285L24.56 40.29l-3.986.55-2.332-2.254-5.285-5.111-2.33-2.255.568-3.855zm39.2-23.783l-3.611 14.674-23.808 18.092-3.23-3.123 30.65-29.643zM27.052 40.29l-2.818-2.726 16.747-12.73c-2.93 8.112-7.29 13.364-14.551 17.62-.312-.183-.617-.38-.926-.573l1.05-.145a.895.895 0 00.441-.19.852.852 0 00.272-.385.825.825 0 00-.215-.873v.002zm-12.955 1.102l-4.04-3.907 2.278-2.203 4.04 3.907-2.278 2.203zm-7.305 7.065a.92.92 0 01-.623.24.92.92 0 01-.623-.24l-2.794-2.703a.838.838 0 01-.258-.602c0-.226.093-.443.258-.602l6.06-5.86 4.04 3.906-6.06 5.86zM50.885 12.76l-1.126 4.98a48.501 48.501 0 01-8.324 18.077c-4.01 5.42-9.115 9.996-15.006 13.453a50.475 50.475 0 01-10.017-7.71l1.208-1.168 2.02 1.954a.897.897 0 00.747.24l2.541-.35a39.62 39.62 0 003.052 1.945.904.904 0 00.897 0c8.65-4.942 13.47-11.114 16.588-21.236l4.65-3.534a.849.849 0 00.313-.473l1.534-6.233c.308.018.618.044.923.054zM49.156 2.378l-8.117 7.845h-9.325v1.704h7.564l-1.762 1.704h-7.564v1.704h5.802L18.501 32.02l-3.23-3.123L33.98 5.871l15.177-3.494zm-28.77 4.016l6.043-4.47 5.32 3.934-2.843 3.5-1.924-1.502a.9.9 0 00-1.07-.026l-4.925 3.459c-3.71 2.733-8.242 4.217-12.905 4.225a.905.905 0 00-.686.318.84.84 0 00-.175.716l.961 4.247a35.165 35.165 0 001.485 4.872L8.819 31.4a.825.825 0 00.25.724l2.02 1.953-.529.511A47.97 47.97 0 013.1 17.74l-1.126-4.978c6.67-.232 13.103-2.456 18.413-6.367zm30.708 25.127h-1.761v1.704h1.761v-1.704zm-1.762 1.704h-1.761v1.704h1.761v-1.704zm3.524 0h-1.761v1.704h1.761v-1.704zm-1.762 1.704h-1.761v1.704h1.761v-1.704zm-3.524 8.52h-1.76v1.703h1.761V43.45zm-1.762 1.703h-1.761v1.704h1.761v-1.704zm3.524 0h-1.761v1.704h1.761v-1.704zm-1.762 1.704h-1.76v1.704h1.761v-1.704zM7.05 0H5.29v1.704h1.76V0zM5.29 1.704H3.526v1.704H5.29V1.704zm3.523 0H7.05v1.704h1.762V1.704zM7.05 3.407H5.29v1.704h1.76V3.407zm31.712 41.745H37v1.704h1.762v-1.704zM14.098.853h-1.762v1.703h1.762V.853zM1.762 7.667H0v1.704h1.762V7.667zm51.094 41.745h-1.761v1.704h1.761v-1.704z" fill="#FF3743"/></svg>