<svg width="40" height="34" viewBox="0 0 40 34" fill="none" xmlns="http://www.w3.org/2000/svg"><path d="M20.782 28.166L3.778 17.834m17.004 10.332L10.419 16.054m10.363 12.112l-3.723-13.891M3.778 17.834L8.64 9.419m-4.863 8.415l6.64-1.78M8.642 9.42l8.418 4.856M8.642 9.419l6.64-1.779m1.778 6.635l-6.64 1.78m6.64-1.78l2.432-4.207-4.21-2.428m-4.862 8.414l4.863-8.414m7.96 20.257l15.105-12.951M23.243 27.897l8.264-13.631m-8.264 13.631l1.423-14.31m13.682 1.359L32.186 7.43m6.162 7.515l-6.841-.68m.68-6.835l-7.521 6.155m7.52-6.155l-6.841-.68 6.162 7.515m-6.841-.68l6.84.68M21.375 1.75l-3.125.625.625 3.125L22 8.625 21.375 5.5V1.75z" stroke="#fff" stroke-width="1.25"/></svg>