<svg width="99" height="44" viewBox="0 0 99 44" fill="none" xmlns="http://www.w3.org/2000/svg">
<path d="M0.658583 0.136709H3.50321V10.9519H0.658583V0.136709Z" fill="white"/>
<path d="M15.0846 0.136709V10.9519H12.9814L8.09405 4.81519V10.9519H5.44613V0.136709H7.51907L12.4064 6.24304V0.136709H15.0846Z" fill="white"/>
<path d="M20.9346 11.0886C20.1276 11.0886 19.3307 10.9823 18.5439 10.7696C17.7571 10.557 17.1165 10.2684 16.6223 9.9038L17.515 7.88354C18.0395 8.21772 18.5943 8.47595 19.1794 8.65823C19.7746 8.83038 20.3697 8.91646 20.9649 8.91646C21.5701 8.91646 22.0341 8.83544 22.3569 8.67342C22.6797 8.50127 22.8411 8.26329 22.8411 7.95949C22.8411 7.68608 22.6948 7.46329 22.4023 7.29114C22.1098 7.10886 21.56 6.93165 20.753 6.75949C19.7342 6.55696 18.9424 6.30886 18.3775 6.01519C17.8126 5.71139 17.4141 5.35696 17.1821 4.9519C16.9602 4.54683 16.8492 4.0557 16.8492 3.47848C16.8492 2.82025 17.0358 2.22785 17.4091 1.70127C17.7823 1.16456 18.3068 0.749366 18.9827 0.455696C19.6586 0.151899 20.4302 0 21.2977 0C22.0745 0 22.826 0.111392 23.5523 0.334177C24.2886 0.546835 24.8636 0.83038 25.2772 1.18481L24.3996 3.20506C23.9255 2.87089 23.4262 2.61772 22.9016 2.44557C22.3771 2.26329 21.8525 2.17215 21.328 2.17215C20.8135 2.17215 20.4 2.27342 20.0873 2.47595C19.7746 2.66835 19.6182 2.93164 19.6182 3.26582C19.6182 3.4481 19.6737 3.6 19.7846 3.72152C19.8956 3.84304 20.1024 3.96456 20.405 4.08608C20.7076 4.19747 21.1616 4.31899 21.7668 4.45063C22.7453 4.66329 23.5119 4.92152 24.0667 5.22532C24.6316 5.51899 25.0301 5.86835 25.2621 6.27342C25.4941 6.66835 25.6101 7.1443 25.6101 7.70127C25.6101 8.75443 25.2015 9.58481 24.3845 10.1924C23.5674 10.7899 22.4174 11.0886 20.9346 11.0886Z" fill="white"/>
<path d="M32.3264 11.0886C31.2268 11.0886 30.2685 10.8658 29.4515 10.4203C28.6344 9.96456 28.0039 9.31645 27.5601 8.47595C27.1263 7.63544 26.9095 6.65316 26.9095 5.52911C26.9095 4.40506 27.1314 3.42785 27.5752 2.59747C28.0191 1.76709 28.6445 1.12911 29.4515 0.683544C30.2685 0.227848 31.2268 0 32.3264 0C33.4259 0 34.3791 0.227848 35.1861 0.683544C36.0032 1.12911 36.6286 1.76709 37.0624 2.59747C37.4961 3.42785 37.713 4.40506 37.713 5.52911C37.713 6.65316 37.4961 7.63544 37.0624 8.47595C36.6286 9.31645 36.0032 9.96456 35.1861 10.4203C34.3791 10.8658 33.4259 11.0886 32.3264 11.0886ZM32.3264 8.91646C33.1333 8.91646 33.7638 8.62785 34.2177 8.05063C34.6817 7.47342 34.9138 6.63291 34.9138 5.52911C34.9138 4.43544 34.6817 3.60506 34.2177 3.03797C33.7638 2.46076 33.1333 2.17215 32.3264 2.17215C31.5194 2.17215 30.8889 2.4557 30.435 3.02278C29.981 3.58987 29.7541 4.42532 29.7541 5.52911C29.7541 6.64304 29.981 7.48861 30.435 8.06582C30.8889 8.63291 31.5194 8.91646 32.3264 8.91646Z" fill="white"/>
<path d="M50.2821 0.136709V10.9519H47.8006L47.7855 6L45.7428 10.9519H43.9422L41.8844 6.06076V10.9519H39.4181V0.136709H41.6423L44.8652 7.51899L48.073 0.136709H50.2821Z" fill="white"/>
<path d="M61.8961 0.136709V10.9519H59.7929L54.9056 4.81519V10.9519H52.2577V0.136709H54.3306L59.2179 6.24304V0.136709H61.8961Z" fill="white"/>
<path d="M63.8423 0.136709H66.687V10.9519H63.8423V0.136709Z" fill="white"/>
<path d="M75.8928 8.71899H71.1114L70.1581 10.9519H67.3135L72.3521 0.136709H74.5915L79.6452 10.9519H76.846L75.8928 8.71899ZM74.9698 6.57721L73.5021 3.15949L72.0344 6.57721H74.9698Z" fill="white"/>
<path d="M0.658583 16.5924H5.0617C6.25201 16.5924 7.27587 16.8101 8.1333 17.2456C9.00081 17.6709 9.66153 18.2886 10.1155 19.0987C10.5795 19.9089 10.8115 20.8709 10.8115 21.9848C10.8115 23.1089 10.5845 24.081 10.1306 24.9013C9.67666 25.7114 9.01594 26.3342 8.14843 26.7696C7.29101 27.1949 6.2621 27.4076 5.0617 27.4076H0.658583V16.5924ZM4.865 25.1291C5.91408 25.1291 6.69585 24.8709 7.21031 24.3544C7.73485 23.8278 7.99712 23.038 7.99712 21.9848C7.99712 19.9089 6.95308 18.8709 4.865 18.8709H3.50321V25.1291H4.865Z" fill="white"/>
<path d="M12.4797 16.5924H15.3243V27.4076H12.4797V16.5924Z" fill="white"/>
<path d="M26.83 21.3013V26.724C26.255 26.9873 25.6094 27.1899 24.8932 27.3316C24.1871 27.4734 23.4608 27.5443 22.7144 27.5443C21.5443 27.5443 20.5254 27.3215 19.6579 26.8759C18.8005 26.4304 18.1398 25.7924 17.6758 24.962C17.2117 24.1215 16.9797 23.1291 16.9797 21.9848C16.9797 20.8709 17.2117 19.8987 17.6758 19.0684C18.1398 18.2278 18.7955 17.5848 19.6428 17.1392C20.4901 16.6835 21.4787 16.4557 22.6085 16.4557C23.3852 16.4557 24.1165 16.557 24.8025 16.7595C25.4985 16.962 26.0634 17.2405 26.4971 17.5949L25.6044 19.6152C25.1101 19.2911 24.631 19.0582 24.167 18.9165C23.713 18.7646 23.2238 18.6886 22.6993 18.6886C21.741 18.6886 21.0248 18.962 20.5506 19.5089C20.0866 20.0456 19.8546 20.8709 19.8546 21.9848C19.8546 23.1392 20.0967 23.9949 20.5809 24.5519C21.0752 25.1089 21.8317 25.3873 22.8506 25.3873C23.3247 25.3873 23.7988 25.3367 24.2729 25.2354V23.2304H22.3966V21.3013H26.83Z" fill="white"/>
<path d="M28.6302 16.5924H31.4749V27.4076H28.6302V16.5924Z" fill="white"/>
<path d="M35.8388 18.9013H32.631V16.5924H41.9214V18.9013H38.7136V27.4076H35.8388V18.9013Z" fill="white"/>
<path d="M48.9259 25.1747H44.1445L43.1912 27.4076H40.3466L45.3852 16.5924H47.6246L52.6784 27.4076H49.8791L48.9259 25.1747ZM48.0029 23.0329L46.5352 19.6152L45.0675 23.0329H48.0029Z" fill="white"/>
<path d="M53.292 16.5924H56.1366V25.0987H60.6911V27.4076H53.292V16.5924Z" fill="white"/>
<path d="M5.89391 44C4.77422 44 3.79574 43.7721 2.9585 43.3165C2.13133 42.8506 1.49079 42.1975 1.03686 41.357C0.593015 40.5165 0.371094 39.5443 0.371094 38.4405C0.371094 37.3468 0.593015 36.3848 1.03686 35.5544C1.49079 34.7139 2.13133 34.0658 2.9585 33.6101C3.79574 33.1443 4.77422 32.9114 5.89391 32.9114C6.60002 32.9114 7.28092 33.0177 7.93659 33.2304C8.60236 33.443 9.13699 33.7316 9.54048 34.0962L8.67801 36.1165C7.80042 35.4785 6.89256 35.1595 5.95443 35.1595C5.08692 35.1595 4.42116 35.438 3.95714 35.9949C3.49312 36.5418 3.26112 37.357 3.26112 38.4405C3.26112 39.5342 3.49312 40.3595 3.95714 40.9165C4.42116 41.4734 5.08692 41.7519 5.95443 41.7519C6.89256 41.7519 7.80042 41.4329 8.67801 40.7949L9.54048 42.8152C9.13699 43.1797 8.60236 43.4683 7.93659 43.681C7.28092 43.8937 6.60002 44 5.89391 44Z" fill="white"/>
<path d="M15.9098 44C14.8103 44 13.852 43.7772 13.0349 43.3316C12.2178 42.8759 11.5874 42.2278 11.1435 41.3873C10.7098 40.5468 10.4929 39.5646 10.4929 38.4405C10.4929 37.3165 10.7148 36.3392 11.1587 35.5089C11.6025 34.6785 12.2279 34.0405 13.0349 33.5949C13.852 33.1392 14.8103 32.9114 15.9098 32.9114C17.0093 32.9114 17.9626 33.1392 18.7696 33.5949C19.5866 34.0405 20.2121 34.6785 20.6458 35.5089C21.0796 36.3392 21.2964 37.3165 21.2964 38.4405C21.2964 39.5646 21.0796 40.5468 20.6458 41.3873C20.2121 42.2278 19.5866 42.8759 18.7696 43.3316C17.9626 43.7772 17.0093 44 15.9098 44ZM15.9098 41.8278C16.7168 41.8278 17.3473 41.5392 17.8012 40.962C18.2652 40.3848 18.4972 39.5443 18.4972 38.4405C18.4972 37.3468 18.2652 36.5165 17.8012 35.9494C17.3473 35.3721 16.7168 35.0835 15.9098 35.0835C15.1028 35.0835 14.4724 35.3671 14.0184 35.9342C13.5645 36.5013 13.3375 37.3367 13.3375 38.4405C13.3375 39.5544 13.5645 40.4 14.0184 40.9772C14.4724 41.5443 15.1028 41.8278 15.9098 41.8278Z" fill="white"/>
<path d="M32.5946 33.0481V43.8633H30.4914L25.604 37.7266V43.8633H22.9561V33.0481H25.0291L29.9164 39.1544V33.0481H32.5946Z" fill="white"/>
<path d="M38.4446 44C37.6376 44 36.8407 43.8937 36.0539 43.681C35.2671 43.4683 34.6265 43.1797 34.1323 42.8152L35.025 40.7949C35.5495 41.1291 36.1043 41.3873 36.6894 41.5696C37.2845 41.7418 37.8797 41.8278 38.4749 41.8278C39.0801 41.8278 39.5441 41.7468 39.8669 41.5848C40.1897 41.4127 40.3511 41.1747 40.3511 40.8709C40.3511 40.5975 40.2048 40.3747 39.9123 40.2025C39.6198 40.0203 39.07 39.843 38.263 39.6709C37.2442 39.4683 36.4523 39.2202 35.8875 38.9266C35.3226 38.6228 34.9241 38.2683 34.6921 37.8633C34.4702 37.4582 34.3592 36.9671 34.3592 36.3899C34.3592 35.7316 34.5458 35.1392 34.9191 34.6127C35.2923 34.0759 35.8168 33.6608 36.4927 33.3671C37.1685 33.0633 37.9402 32.9114 38.8077 32.9114C39.5845 32.9114 40.336 33.0228 41.0623 33.2456C41.7986 33.4582 42.3736 33.7418 42.7872 34.0962L41.9096 36.1165C41.4355 35.7823 40.9362 35.5291 40.4116 35.357C39.8871 35.1747 39.3625 35.0835 38.838 35.0835C38.3235 35.0835 37.91 35.1848 37.5973 35.3873C37.2845 35.5797 37.1282 35.843 37.1282 36.1772C37.1282 36.3595 37.1837 36.5114 37.2946 36.6329C37.4056 36.7544 37.6124 36.8759 37.915 36.9975C38.2176 37.1089 38.6716 37.2304 39.2768 37.362C40.2553 37.5747 41.0219 37.8329 41.5767 38.1367C42.1416 38.4304 42.5401 38.7797 42.7721 39.1848C43.0041 39.5797 43.1201 40.0557 43.1201 40.6127C43.1201 41.6658 42.7115 42.4962 41.8945 43.1038C41.0774 43.7013 39.9274 44 38.4446 44Z" fill="white"/>
<path d="M49.4429 44C47.8693 44 46.679 43.6051 45.872 42.8152C45.065 42.0152 44.6615 40.8456 44.6615 39.3063V33.0481H47.4305V39.4127C47.4305 40.1924 47.602 40.7899 47.945 41.2051C48.298 41.6203 48.7974 41.8278 49.4429 41.8278C50.0784 41.8278 50.5677 41.6203 50.9106 41.2051C51.2536 40.7797 51.4251 40.1823 51.4251 39.4127V33.0481H54.2243V39.3063C54.2243 40.8253 53.8108 41.9899 52.9836 42.8C52.1665 43.6 50.9863 44 49.4429 44Z" fill="white"/>
<path d="M56.0847 33.0481H58.9294V41.5544H63.4838V43.8633H56.0847V33.0481Z" fill="white"/>
<path d="M65.3619 35.357H62.1542V33.0481H71.4446V35.357H68.2368V43.8633H65.3619V35.357Z" fill="white"/>
<path d="M72.59 33.0481H75.4346V43.8633H72.59V33.0481Z" fill="white"/>
<path d="M87.0159 33.0481V43.8633H84.9127L80.0254 37.7266V43.8633H77.3775V33.0481H79.4504L84.3378 39.1544V33.0481H87.0159Z" fill="white"/>
<path d="M98.525 37.757V43.1797C97.95 43.443 97.3044 43.6456 96.5882 43.7873C95.8821 43.9291 95.1558 44 94.4093 44C93.2392 44 92.2204 43.7772 91.3529 43.3316C90.4954 42.8861 89.8347 42.2481 89.3707 41.4177C88.9067 40.5772 88.6747 39.5848 88.6747 38.4405C88.6747 37.3266 88.9067 36.3544 89.3707 35.524C89.8347 34.6835 90.4904 34.0405 91.3377 33.5949C92.1851 33.1392 93.1736 32.9114 94.3034 32.9114C95.0801 32.9114 95.8115 33.0127 96.4974 33.2152C97.1934 33.4177 97.7583 33.6962 98.1921 34.0506L97.2993 36.0709C96.8051 35.7468 96.3259 35.5139 95.8619 35.3721C95.408 35.2202 94.9187 35.1443 94.3942 35.1443C93.4359 35.1443 92.7197 35.4177 92.2456 35.9646C91.7816 36.5013 91.5496 37.3266 91.5496 38.4405C91.5496 39.5949 91.7917 40.4506 92.2759 41.0076C92.7701 41.5646 93.5267 41.843 94.5455 41.843C95.0196 41.843 95.4937 41.7924 95.9678 41.6911V39.6861H94.0916V37.757H98.525Z" fill="white"/>
</svg>
