<svg width="53" height="47" viewBox="0 0 53 47" fill="none" xmlns="http://www.w3.org/2000/svg">
<path d="M46.6881 2.55579C41.928 2.55516 37.1951 3.24905 32.6491 4.61405L21.406 7.98855C16.4713 9.47053 11.3336 10.2239 6.16635 10.2232C4.99819 10.2232 3.87788 9.77438 3.05187 8.97554C2.22586 8.1767 1.76181 7.09324 1.76181 5.96351C1.76181 4.83378 2.22586 3.75032 3.05187 2.95148C3.87788 2.15264 4.99819 1.70386 6.16635 1.70386H10.5709V7.66737H12.3327V0.85193C12.3327 0.625984 12.2399 0.409293 12.0747 0.249525C11.9095 0.0897568 11.6854 0 11.4518 0H6.16635C4.5315 0.00180384 2.96415 0.63068 1.80814 1.74866C0.652131 2.86665 0.0018652 4.38244 0 5.96351V38.3368C0.0018652 39.9179 0.652131 41.4337 1.80814 42.5517C2.96415 43.6697 4.5315 44.2985 6.16635 44.3004C11.5106 44.3007 16.8243 43.5218 21.9284 41.9899L33.1706 38.6146C35.8556 37.8143 38.6113 37.2553 41.4026 36.9448V46.0042C41.4026 46.2302 41.4954 46.4469 41.6606 46.6066C41.8258 46.7664 42.0499 46.8561 42.2835 46.8561C45.0862 46.8532 47.7732 45.7752 49.7549 43.8586C51.7367 41.942 52.8514 39.3434 52.8544 36.633V8.5193C52.8526 6.93823 52.2023 5.42244 51.0463 4.30445C49.8903 3.18647 48.3229 2.55759 46.6881 2.55579ZM51.0926 36.633C51.0899 38.7442 50.2778 40.7795 48.8134 42.3452C47.349 43.9109 45.3363 44.8959 43.1644 45.1097V14.4828H46.6881C47.5085 14.4839 48.3209 14.3261 49.0773 14.0189C49.8338 13.7116 50.519 13.2611 51.0926 12.6938V36.633ZM46.6881 12.7789H42.2835C42.0499 12.7789 41.8258 12.8687 41.6606 13.0285C41.4954 13.1882 41.4026 13.4049 41.4026 13.6309V35.229C38.4341 35.5476 35.5032 36.1363 32.6491 36.9874L21.406 40.3619C16.4713 41.8439 11.3336 42.5972 6.16635 42.5965C4.99862 42.5951 3.87913 42.1459 3.05342 41.3474C2.22771 40.5488 1.76321 39.4662 1.76181 38.3368V10.1286C2.3344 10.6979 3.0192 11.1503 3.77573 11.4592C4.53226 11.7681 5.34516 11.9272 6.16635 11.927C11.5106 11.9274 16.8243 11.1485 21.9284 9.61658L33.1714 6.24124C37.5483 4.92713 42.1051 4.25909 46.6881 4.25965C47.8562 4.25965 48.9765 4.70843 49.8025 5.50727C50.6286 6.30611 51.0926 7.38957 51.0926 8.5193C51.0926 9.64903 50.6286 10.7325 49.8025 11.5313C48.9765 12.3302 47.8562 12.7789 46.6881 12.7789Z" fill="#FF3743"/>
<path d="M19.489 29.5788C18.4839 28.8018 17.6171 28.1313 17.6171 27.2624C17.617 27.022 17.5634 26.7845 17.4601 26.5659C17.3567 26.3474 17.206 26.1528 17.0181 25.9955C16.604 25.6326 15.3443 24.5285 7.99758 25.2288C6.99837 25.3237 6.04554 25.6832 5.2438 26.2677C4.44205 26.8522 3.82242 27.6391 3.45299 28.542L3.25831 29.0122C2.82704 30.0484 2.74655 31.1902 3.02839 32.2734C3.22163 33.0262 3.5836 33.7288 4.08868 34.3314C4.59376 34.9339 5.22962 35.4218 5.95124 35.7604C8.57282 36.9922 12.0647 38.5794 13.8142 39.1434C14.1904 39.2602 14.5836 39.3178 14.9788 39.3138C16.4044 39.2465 17.7741 38.757 18.9023 37.9115C20.4104 36.8585 22.0216 35.0763 22.0216 33.2259C22.0216 31.539 20.6765 30.4997 19.489 29.5788ZM17.8717 36.5279C16.582 37.4259 15.243 37.8058 14.3718 37.529C12.6259 36.9658 8.82916 35.2202 6.72203 34.2303C5.8751 33.8311 5.21587 33.1366 4.87692 32.2864C4.53797 31.4363 4.54444 30.4935 4.89503 29.6478L5.08883 29.1775C5.33915 28.5645 5.75936 28.0301 6.30329 27.633C6.84722 27.2359 7.49381 26.9915 8.172 26.9267C13.9402 26.3746 15.68 27 15.8561 27.2624C15.8561 28.9492 17.2013 29.9885 18.3888 30.9095C19.393 31.6864 20.2598 32.3569 20.2598 33.2259C20.2598 34.1903 19.2785 35.5482 17.8717 36.5279Z" fill="#FF3743"/>
<path d="M29.9509 28.9655C27.4394 28.9655 25.5464 30.0644 25.5464 31.5212C25.5464 32.978 27.4394 34.077 29.9509 34.077C32.4623 34.077 34.3554 32.978 34.3554 31.5212C34.3554 30.0644 32.4623 28.9655 29.9509 28.9655ZM29.9509 32.3732C28.2455 32.3732 27.3082 31.7334 27.3082 31.5212C27.3082 31.3091 28.2455 30.6693 29.9509 30.6693C31.6563 30.6693 32.5936 31.3091 32.5936 31.5212C32.5936 31.7334 31.6563 32.3732 29.9509 32.3732Z" fill="#FF3743"/>
<path d="M8.73811 20.2595L8.63505 18.5557C8.01469 18.5908 7.397 18.661 6.78516 18.7661L7.09171 20.4461C7.63624 20.3526 8.186 20.2903 8.73811 20.2595Z" fill="#FF3743"/>
<path d="M19.1246 21.6387C18.6282 21.2763 18.1106 20.9421 17.5742 20.6377L16.6836 22.1073C17.1601 22.3794 17.6198 22.678 18.0605 23.0018L19.1246 21.6387Z" fill="#FF3743"/>
<path d="M38.4108 23.9022L36.6792 24.2167L37.0043 25.8913L38.7359 25.5768L38.4108 23.9022Z" fill="#FF3743"/>
<path d="M12.3532 18.7745C11.7414 18.6687 11.1237 18.5976 10.5033 18.5615L10.3984 20.2654C10.95 20.2972 11.4992 20.3604 12.0431 20.4545L12.3532 18.7745Z" fill="#FF3743"/>
<path d="M34.9464 24.5303L33.2148 24.8447L33.54 26.5193L35.2715 26.2049L34.9464 24.5303Z" fill="#FF3743"/>
<path d="M15.9106 19.8203C15.3412 19.579 14.7576 19.3705 14.1629 19.1958L13.6528 20.8264C14.1818 20.9811 14.7007 21.1663 15.2068 21.381L15.9106 19.8203Z" fill="#FF3743"/>
<path d="M22.6724 25.8595C23.2451 26.0949 23.8312 26.2983 24.428 26.4687L24.9248 24.8347C24.3941 24.6832 23.8729 24.502 23.3639 24.292L22.6724 25.8595Z" fill="#FF3743"/>
<path d="M4.99291 19.1764L3.29297 19.624L3.75582 21.268L5.45576 20.8204L4.99291 19.1764Z" fill="#FF3743"/>
<path d="M31.809 26.836L31.4857 25.1611C30.9426 25.2593 30.394 25.3265 29.8428 25.3622L29.9599 27.0618C30.5803 27.0217 31.1977 26.9463 31.809 26.836Z" fill="#FF3743"/>
<path d="M28.1854 25.3715C27.6333 25.3442 27.0832 25.2856 26.5382 25.196L26.2422 26.8752C26.8542 26.9768 27.4719 27.0428 28.0921 27.0728L28.1854 25.3715Z" fill="#FF3743"/>
<path d="M21.8798 23.5756C21.4002 23.31 20.9374 23.0167 20.4942 22.6973L19.4424 24.0655C19.942 24.4241 20.4629 24.754 21.0025 25.0537L21.8798 23.5756Z" fill="#FF3743"/>
<path d="M39.8987 7.91687L37.8788 9.87035L35.8589 7.91687L34.6133 9.1215L36.6332 11.075L34.9542 12.6988C33.9554 12.1882 32.8421 11.9231 31.7124 11.9269C30.5054 11.8851 29.312 12.1854 28.2791 12.7908C27.2461 13.3962 26.4187 14.2804 25.8984 15.3346C24.9208 15.3027 23.9687 15.6409 23.2449 16.2773C22.521 16.9137 22.0825 17.798 22.0225 18.7423C22.0853 19.701 22.5371 20.5969 23.2795 21.235C24.0218 21.8732 24.9947 22.2021 25.9865 22.1501C26.8759 22.1543 27.744 21.8878 28.4681 21.3884C29.4685 21.896 30.5827 22.1576 31.7124 22.1501C35.1119 22.1501 37.8788 19.8575 37.8788 17.0385C37.8711 16.4169 37.7355 15.803 37.4801 15.2326C37.2247 14.6622 36.8544 14.1466 36.3909 13.716L37.8788 12.2796L39.8987 14.2331L41.1443 13.0284L39.1244 11.075L41.1443 9.1215L39.8987 7.91687ZM31.7124 20.4462C30.7027 20.4543 29.7132 20.172 28.8697 19.6352C28.6965 19.5212 28.4869 19.4707 28.2787 19.4928C28.0704 19.5148 27.8771 19.6078 27.7334 19.7553C27.506 19.9791 27.2338 20.1558 26.9335 20.2746C26.6331 20.3934 26.311 20.4517 25.9865 20.4462C25.4625 20.4945 24.9396 20.3437 24.5285 20.0257C24.1175 19.7076 23.8506 19.2474 23.7843 18.7423C23.8506 18.2373 24.1175 17.777 24.5285 17.459C24.9396 17.141 25.4625 16.9902 25.9865 17.0385C26.1227 17.0404 26.2584 17.0524 26.3926 17.0743C26.6124 17.1066 26.8366 17.0574 27.0204 16.9365C27.2042 16.8156 27.334 16.632 27.3837 16.4225C27.7677 14.8047 29.5894 13.6308 31.7124 13.6308C34.1411 13.6308 36.117 15.1591 36.117 17.0385C36.117 18.9178 34.1411 20.4462 31.7124 20.4462Z" fill="#FF3743"/>
</svg>
