<svg width="53" height="52" viewBox="0 0 53 52" fill="none" xmlns="http://www.w3.org/2000/svg">
<path d="M0.196179 11.3926C0.113264 11.4917 0.0543922 11.6075 0.0239007 11.7315C-0.00659088 11.8555 -0.00792465 11.9845 0.019998 12.1091L1.37748 18.1033C2.81328 24.4447 5.49941 30.4592 9.2889 35.8175L1.50521 43.3451C1.00977 43.8244 0.731454 44.4744 0.731454 45.1521C0.731454 45.8298 1.00977 46.4797 1.50521 46.959L4.29945 49.6613C4.79503 50.1405 5.46709 50.4096 6.16785 50.4096C6.8686 50.4096 7.54067 50.1405 8.03625 49.6613L15.1663 42.7667C18.3821 45.9572 22.018 48.7248 25.9803 50.998C26.1161 51.0756 26.271 51.1166 26.4287 51.1166C26.5865 51.1166 26.7413 51.0756 26.8771 50.998C33.0888 47.4368 38.4778 42.6794 42.7099 37.021C46.9421 31.3625 49.9271 24.9235 51.4799 18.1033L52.8357 12.1091C52.8638 11.9847 52.8628 11.8557 52.8327 11.7317C52.8025 11.6078 52.744 11.4919 52.6614 11.3927C52.5789 11.2934 52.4743 11.2134 52.3555 11.1584C52.2368 11.1034 52.1067 11.0748 51.975 11.0749C51.4518 11.0749 50.9179 11.0561 50.3753 11.0272L52.8321 1.04849C52.8659 0.907594 52.862 0.760698 52.8209 0.621646C52.7797 0.482595 52.7026 0.355967 52.5969 0.253694C52.4911 0.15142 52.3602 0.0768692 52.2164 0.037065C52.0726 -0.00273917 51.9207 -0.00648587 51.7751 0.026178L33.276 4.28583C33.1135 4.32687 32.9664 4.412 32.8523 4.53118L26.9634 0.175266C26.8098 0.0618225 26.622 0.000366211 26.4287 0.000366211C26.2355 0.000366211 26.0476 0.0618225 25.894 0.175266L19.3154 5.03979C14.0169 8.94327 7.54315 11.0628 0.882406 11.0749C0.750739 11.0749 0.620746 11.1034 0.50199 11.1584C0.383234 11.2134 0.278735 11.2934 0.196179 11.3926ZM11.3238 25.0797C10.7384 23.5642 10.2639 22.0107 9.90378 20.4308L9.17086 17.1934C13.8357 16.9727 18.3221 15.3908 22.0392 12.656L26.4005 9.58909L27.817 10.6966L14.0167 27.6875L11.3238 25.0797ZM11.1952 27.3646L24.5603 40.2901L20.5742 40.8404L18.2424 38.5862L12.957 33.4747L10.6261 31.2196L11.1952 27.3646ZM50.3956 3.58213L46.7838 18.2558L22.9756 36.3482L19.7462 33.225L50.3956 3.58213ZM27.0515 40.2901L24.2326 37.5639L40.9804 24.8335C38.0505 32.9456 33.6891 38.1978 26.4287 42.4548C26.1169 42.2708 25.8121 42.0749 25.5029 41.8806L26.5529 41.7358C26.7153 41.7137 26.8682 41.6482 26.9941 41.5466C27.1201 41.445 27.2143 41.3114 27.266 41.1609C27.3178 41.0104 27.325 40.8489 27.287 40.6945C27.2489 40.5402 27.1671 40.3993 27.0506 40.2875L27.0515 40.2901ZM14.096 41.3916L10.0562 37.4847L12.3342 35.2816L16.374 39.1885L14.096 41.3916ZM6.79065 48.4567C6.62275 48.6114 6.39974 48.6977 6.16785 48.6977C5.93595 48.6977 5.71295 48.6114 5.54505 48.4567L2.75081 45.7544C2.58567 45.5946 2.49289 45.378 2.49289 45.1521C2.49289 44.9262 2.58567 44.7095 2.75081 44.5497L8.81057 38.6893L12.8504 42.5963L6.79065 48.4567ZM50.8853 12.7608L49.7587 17.7404C48.2765 24.2485 45.4448 30.3984 41.4348 35.8179C37.4249 41.2375 32.3199 45.8142 26.4287 49.2711C22.7664 47.1207 19.4007 44.53 16.4119 41.5612L17.6196 40.3932L19.6396 42.3467C19.8047 42.5064 20.0288 42.5962 20.2624 42.5963C20.3042 42.5964 20.346 42.5935 20.3875 42.5877L22.928 42.2368C23.9164 42.9294 24.9391 43.5862 25.9803 44.1817C26.1161 44.2594 26.271 44.3003 26.4287 44.3003C26.5865 44.3003 26.7413 44.2594 26.8771 44.1817C35.5276 39.2405 40.347 33.0683 43.4646 22.9457L48.1149 19.4118C48.2714 19.2929 48.3816 19.1263 48.4276 18.939L49.9621 12.7055C50.2705 12.7242 50.5805 12.7498 50.8853 12.76V12.7608ZM49.1561 2.3775L41.0394 10.2229H31.7142V11.9268H39.2776L37.5158 13.6306H29.9523V15.3345H35.754L18.5005 32.0204L15.2711 28.8972L33.979 5.87127L49.1561 2.3775ZM20.3857 6.3935L26.4287 1.92428L31.7485 5.85849L28.9058 9.35822L26.9819 7.85627C26.8313 7.73878 26.6448 7.67254 26.4514 7.66776C26.2579 7.66299 26.0683 7.71995 25.9116 7.82986L20.9865 11.2887C17.2775 14.0221 12.7452 15.5062 8.08206 15.5143C7.95036 15.5142 7.82033 15.5428 7.70153 15.5978C7.58274 15.6528 7.47821 15.7328 7.39564 15.8321C7.31307 15.9313 7.25455 16.0472 7.2244 16.1712C7.19425 16.2951 7.19323 16.4241 7.22141 16.5485L8.18248 20.7954C8.55827 22.4509 9.05427 24.0787 9.66681 25.6667L8.81938 31.4002C8.79999 31.5312 8.81242 31.6648 8.8557 31.7903C8.89897 31.9159 8.97189 32.0299 9.06868 32.1235L11.0886 34.077L10.5601 34.5881C6.99483 29.4781 4.46309 23.7611 3.09877 17.7395L1.97297 12.7608C8.64333 12.529 15.0757 10.3046 20.3857 6.3935Z" fill="#FF3743"/>
<path d="M51.0943 31.5214H49.3325V33.2252H51.0943V31.5214Z" fill="#FF3743"/>
<path d="M49.3324 33.2252H47.5706V34.9291H49.3324V33.2252Z" fill="#FF3743"/>
<path d="M52.8565 33.2252H51.0947V34.9291H52.8565V33.2252Z" fill="#FF3743"/>
<path d="M51.0943 34.929H49.3325V36.6328H51.0943V34.929Z" fill="#FF3743"/>
<path d="M47.5704 43.4485H45.8086V45.1523H47.5704V43.4485Z" fill="#FF3743"/>
<path d="M45.8084 45.1523H44.0466V46.8562H45.8084V45.1523Z" fill="#FF3743"/>
<path d="M49.3324 45.1523H47.5706V46.8562H49.3324V45.1523Z" fill="#FF3743"/>
<path d="M47.5704 46.8562H45.8086V48.5601H47.5704V46.8562Z" fill="#FF3743"/>
<path d="M7.05087 0H5.28906V1.70386H7.05087V0Z" fill="#FF3743"/>
<path d="M5.28916 1.7041H3.52734V3.40796H5.28916V1.7041Z" fill="#FF3743"/>
<path d="M8.8126 1.7041H7.05078V3.40796H8.8126V1.7041Z" fill="#FF3743"/>
<path d="M7.05087 3.40723H5.28906V5.11109H7.05087V3.40723Z" fill="#FF3743"/>
<path d="M38.7616 45.1523H36.9998V46.8562H38.7616V45.1523Z" fill="#FF3743"/>
<path d="M14.0977 0.852539H12.3359V2.5564H14.0977V0.852539Z" fill="#FF3743"/>
<path d="M1.76182 7.66699H0V9.37085H1.76182V7.66699Z" fill="#FF3743"/>
<path d="M52.8565 49.4121H51.0947V51.116H52.8565V49.4121Z" fill="#FF3743"/>
</svg>
