<svg width="52" height="52" viewBox="0 0 52 52" fill="none" xmlns="http://www.w3.org/2000/svg">
<path d="M8.80867 34.0772C8.80672 37.1495 9.66378 40.1652 11.2891 42.805C12.9144 45.4448 15.2476 47.6104 18.0415 49.0727C20.8355 50.535 23.9863 51.2394 27.1603 51.1115C30.3344 50.9836 33.4137 50.0281 36.0721 48.3461C38.7306 46.6641 40.8694 44.3182 42.262 41.5568C43.6546 38.7954 44.2492 35.7212 43.983 32.6597C43.7167 29.5982 42.5995 26.6632 40.7495 24.1656C38.8996 21.6679 36.3857 19.7005 33.4741 18.4715V12.7789C34.175 12.7789 34.8472 12.5097 35.3428 12.0304C35.8384 11.5511 36.1168 10.901 36.1168 10.2232C36.1168 9.54532 35.8384 8.89525 35.3428 8.41594C34.8472 7.93664 34.175 7.66737 33.4741 7.66737H31.9299L32.9773 3.1104C33.0631 2.73674 33.0611 2.34921 32.9714 1.9764C32.8817 1.60359 32.7065 1.25504 32.4589 0.956472C32.2112 0.657904 31.8973 0.416951 31.5405 0.251402C31.1836 0.0858534 30.7929 -6.18732e-05 30.3971 3.34316e-08H22.4566C22.0608 -6.18732e-05 21.67 0.0858534 21.3132 0.251402C20.9563 0.416951 20.6425 0.657904 20.3948 0.956472C20.1471 1.25504 19.9719 1.60359 19.8822 1.9764C19.7925 2.34921 19.7905 2.73674 19.8764 3.1104L20.9238 7.66737H19.3796C18.6787 7.66737 18.0065 7.93664 17.5109 8.41594C17.0153 8.89525 16.7368 9.54532 16.7368 10.2232C16.7368 10.901 17.0153 11.5511 17.5109 12.0304C18.0065 12.5097 18.6787 12.7789 19.3796 12.7789V18.4715C16.2318 19.7869 13.5524 21.9667 11.6733 24.7407C9.79428 27.5147 8.79825 30.761 8.80867 34.0772ZM26.4268 49.4119C22.223 49.4072 18.1927 47.7901 15.2201 44.9153C12.2475 42.0405 10.5754 38.1428 10.5705 34.0772C10.5705 34.0099 10.5775 33.9443 10.5784 33.8778L12.6371 32.9484C14.7122 32.0148 16.9871 31.5716 19.2741 31.6554C21.5611 31.7393 23.7947 32.3477 25.7908 33.4306C28.1422 34.7162 30.7901 35.4091 33.491 35.4456C36.1918 35.4821 38.8588 34.8609 41.2463 33.6393L42.2462 33.1281C42.2664 33.4417 42.2832 33.7569 42.2832 34.0746C42.279 38.1407 40.6071 42.039 37.6345 44.9144C34.6618 47.7897 30.6311 49.4072 26.4268 49.4119ZM42.0189 31.3212L40.4262 32.1314C38.2282 33.2522 35.7675 33.8031 33.2838 33.7305L33.6873 33.3445C34.5123 32.5513 35.5005 31.9345 36.5879 31.5343C37.6752 31.1341 38.8373 30.9593 39.999 31.0213C40.6668 31.0444 41.3329 31.1027 41.9942 31.196C42.0021 31.2377 42.011 31.2795 42.0189 31.3212ZM21.5977 2.74066C21.5691 2.6162 21.5697 2.48712 21.5996 2.36294C21.6294 2.23875 21.6877 2.12263 21.7701 2.02313C21.8525 1.92363 21.957 1.84328 22.0758 1.78803C22.1946 1.73277 22.3247 1.70401 22.4566 1.70386H30.3971C30.5289 1.70401 30.659 1.73277 30.7778 1.78803C30.8966 1.84328 31.0011 1.92363 31.0835 2.02313C31.166 2.12263 31.2242 2.23875 31.2541 2.36294C31.2839 2.48712 31.2846 2.6162 31.256 2.74066L30.1266 7.66737H22.727L21.5977 2.74066ZM18.4987 10.2232C18.4987 9.99721 18.5915 9.78052 18.7567 9.62075C18.9219 9.46099 19.1459 9.37123 19.3796 9.37123H33.4741C33.7077 9.37123 33.9318 9.46099 34.097 9.62075C34.2622 9.78052 34.355 9.99721 34.355 10.2232C34.355 10.4491 34.2622 10.6658 34.097 10.8256C33.9318 10.9853 33.7077 11.0751 33.4741 11.0751H19.3796C19.1459 11.0751 18.9219 10.9853 18.7567 10.8256C18.5915 10.6658 18.4987 10.4491 18.4987 10.2232ZM28.8757 12.7789L28.3472 15.3347H24.5056L23.977 12.7789H28.8757ZM20.5855 19.8304C20.7495 19.7674 20.8901 19.6583 20.9892 19.5172C21.0883 19.3761 21.1413 19.2095 21.1414 19.0389V12.7789H22.1808L22.9208 16.3571C22.9614 16.5495 23.0695 16.7224 23.2269 16.8466C23.3842 16.9708 23.581 17.0386 23.7841 17.0386H29.0695C29.2726 17.0386 29.4695 16.9708 29.6268 16.8466C29.7841 16.7224 29.8922 16.5495 29.9328 16.3571L30.6728 12.7789H31.7123V19.0389C31.7123 19.2095 31.7654 19.3761 31.8645 19.5172C31.9636 19.6583 32.1042 19.7674 32.2681 19.8304C34.4541 20.6609 36.4207 21.9529 38.0247 23.612C39.6287 25.2711 40.8296 27.2555 41.5397 29.4205C41.0992 29.3771 40.6367 29.3498 40.1011 29.32C38.693 29.2426 37.2838 29.453 35.9653 29.9374C34.6468 30.4218 33.4486 31.1693 32.4487 32.1314L31.0287 33.4902C29.4941 33.2081 28.017 32.687 26.655 31.9474C24.4149 30.7316 21.908 30.0484 19.3411 29.954C16.7742 29.8597 14.2209 30.3569 11.8919 31.4047L10.7299 31.9286C11.1147 29.2476 12.2303 26.7139 13.9624 24.5878C15.6944 22.4616 17.9804 20.8196 20.5855 19.8304Z" fill="#FF3743"/>
<path d="M37.8794 15.3348C37.8794 16.0088 38.0861 16.6677 38.4732 17.2281C38.8604 17.7885 39.4107 18.2252 40.0546 18.4832C40.6985 18.7411 41.4069 18.8086 42.0905 18.6771C42.774 18.5456 43.4018 18.221 43.8946 17.7445C44.3874 17.2679 44.723 16.6607 44.859 15.9997C44.9949 15.3386 44.9251 14.6534 44.6585 14.0308C44.3918 13.4081 43.9401 12.8759 43.3607 12.5014C42.7812 12.127 42.0999 11.9271 41.403 11.9271C40.4685 11.9271 39.5723 12.2862 38.9114 12.9252C38.2506 13.5643 37.8794 14.4311 37.8794 15.3348ZM41.403 13.631C41.7515 13.631 42.0921 13.7309 42.3819 13.9181C42.6716 14.1054 42.8974 14.3715 43.0307 14.6828C43.1641 14.9941 43.199 15.3367 43.131 15.6673C43.063 15.9978 42.8952 16.3014 42.6488 16.5397C42.4024 16.7779 42.0885 16.9402 41.7468 17.006C41.405 17.0717 41.0507 17.038 40.7288 16.909C40.4069 16.78 40.1317 16.5617 39.9381 16.2815C39.7445 16.0013 39.6412 15.6718 39.6412 15.3348C39.6412 14.883 39.8268 14.4496 40.1572 14.13C40.4876 13.8105 40.9358 13.631 41.403 13.631Z" fill="#FF3743"/>
<path d="M43.1641 4.25965C43.1641 5.10213 43.4224 5.92569 43.9064 6.62618C44.3903 7.32668 45.0782 7.87265 45.8831 8.19505C46.6879 8.51745 47.5735 8.60181 48.4279 8.43745C49.2823 8.27309 50.0671 7.8674 50.6831 7.27168C51.2991 6.67595 51.7186 5.91696 51.8885 5.09066C52.0585 4.26437 51.9712 3.4079 51.6379 2.62955C51.3045 1.8512 50.74 1.18594 50.0156 0.71788C49.2913 0.249824 48.4397 0 47.5686 0C46.4009 0.00135274 45.2814 0.45057 44.4557 1.24912C43.63 2.04766 43.1655 3.13034 43.1641 4.25965ZM47.5686 1.70386C48.0913 1.70386 48.6022 1.85375 49.0368 2.13459C49.4714 2.41542 49.8101 2.81458 50.0102 3.28159C50.2102 3.7486 50.2625 4.26248 50.1606 4.75826C50.0586 5.25403 49.8069 5.70943 49.4373 6.06687C49.0677 6.4243 48.5968 6.66771 48.0842 6.76633C47.5715 6.86495 47.0402 6.81433 46.5573 6.62089C46.0744 6.42745 45.6616 6.09987 45.3713 5.67957C45.0809 5.25927 44.9259 4.76514 44.9259 4.25965C44.9259 3.58181 45.2043 2.93174 45.6999 2.45243C46.1955 1.97313 46.8677 1.70386 47.5686 1.70386Z" fill="#FF3743"/>
<path d="M10.5705 7.66736C9.87361 7.66736 9.19235 7.86722 8.61289 8.24166C8.03343 8.61611 7.58179 9.14832 7.3151 9.771C7.0484 10.3937 6.97862 11.0789 7.11458 11.7399C7.25054 12.4009 7.58614 13.0081 8.07893 13.4847C8.57172 13.9613 9.19957 14.2858 9.88309 14.4173C10.5666 14.5488 11.2751 14.4813 11.919 14.2234C12.5628 13.9655 13.1131 13.5287 13.5003 12.9683C13.8875 12.4079 14.0942 11.7491 14.0942 11.0751C14.0942 10.1713 13.7229 9.30453 13.0621 8.66546C12.4013 8.02638 11.505 7.66736 10.5705 7.66736ZM10.5705 12.7789C10.2221 12.7789 9.88143 12.679 9.5917 12.4918C9.30197 12.3046 9.07616 12.0385 8.94281 11.7271C8.80946 11.4158 8.77457 11.0732 8.84255 10.7427C8.91053 10.4122 9.07833 10.1086 9.32472 9.87027C9.57112 9.63198 9.88504 9.4697 10.2268 9.40396C10.5686 9.33821 10.9228 9.37196 11.2447 9.50092C11.5667 9.62988 11.8418 9.84827 12.0354 10.1285C12.229 10.4087 12.3323 10.7381 12.3323 11.0751C12.3323 11.527 12.1467 11.9604 11.8163 12.2799C11.4859 12.5994 11.0378 12.7789 10.5705 12.7789Z" fill="#FF3743"/>
<path d="M5.28543 23.8541C5.28543 23.3486 5.13043 22.8545 4.84005 22.4342C4.54966 22.0139 4.13693 21.6863 3.65404 21.4929C3.17114 21.2994 2.63978 21.2488 2.12715 21.3474C1.61451 21.4461 1.14362 21.6895 0.774034 22.0469C0.404444 22.4043 0.15275 22.8597 0.0507802 23.3555C-0.0511895 23.8513 0.00114505 24.3652 0.201166 24.8322C0.401186 25.2992 0.73991 25.6984 1.1745 25.9792C1.60909 26.26 2.12003 26.4099 2.64271 26.4099C3.3436 26.4099 4.01579 26.1406 4.51139 25.6613C5.007 25.182 5.28543 24.532 5.28543 23.8541ZM1.76181 23.8541C1.76181 23.6856 1.81347 23.5209 1.91027 23.3808C2.00706 23.2407 2.14464 23.1315 2.30561 23.067C2.46657 23.0026 2.64369 22.9857 2.81457 23.0186C2.98545 23.0514 3.14241 23.1326 3.26561 23.2517C3.3888 23.3709 3.4727 23.5227 3.50669 23.6879C3.54068 23.8532 3.52324 24.0245 3.45656 24.1801C3.38989 24.3358 3.27698 24.4689 3.13212 24.5625C2.98725 24.6561 2.81694 24.7061 2.64271 24.7061C2.40908 24.7061 2.18502 24.6163 2.01982 24.4565C1.85462 24.2968 1.76181 24.0801 1.76181 23.8541Z" fill="#FF3743"/>
<path d="M15.1195 29.3062C15.8504 27.6762 16.95 26.2255 18.3373 25.0607C19.7246 23.896 21.3643 23.0469 23.1357 22.576L22.6653 20.9335C20.6411 21.4712 18.7673 22.4411 17.1818 23.7717C15.5963 25.1023 14.3395 26.7597 13.5039 28.6221L15.1195 29.3062Z" fill="#FF3743"/>
<path d="M22.9034 36.6328C23.3899 36.6328 23.7843 36.2514 23.7843 35.7809C23.7843 35.3104 23.3899 34.929 22.9034 34.929C22.4169 34.929 22.0225 35.3104 22.0225 35.7809C22.0225 36.2514 22.4169 36.6328 22.9034 36.6328Z" fill="#FF3743"/>
<path d="M36.1192 40.8923C36.6057 40.8923 37.0001 40.5109 37.0001 40.0404C37.0001 39.5699 36.6057 39.1885 36.1192 39.1885C35.6327 39.1885 35.2383 39.5699 35.2383 40.0404C35.2383 40.5109 35.6327 40.8923 36.1192 40.8923Z" fill="#FF3743"/>
<path d="M28.1895 46.8562C28.676 46.8562 29.0704 46.4748 29.0704 46.0043C29.0704 45.5338 28.676 45.1523 28.1895 45.1523C27.703 45.1523 27.3086 45.5338 27.3086 46.0043C27.3086 46.4748 27.703 46.8562 28.1895 46.8562Z" fill="#FF3743"/>
<path d="M14.9747 40.8923C15.4612 40.8923 15.8556 40.5109 15.8556 40.0404C15.8556 39.5699 15.4612 39.1885 14.9747 39.1885C14.4881 39.1885 14.0938 39.5699 14.0938 40.0404C14.0938 40.5109 14.4881 40.8923 14.9747 40.8923Z" fill="#FF3743"/>
</svg>
