<svg width="40" height="34" viewBox="0 0 40 34" fill="none" xmlns="http://www.w3.org/2000/svg">
<path d="M20.7817 28.1663L3.77778 17.8336M20.7817 28.1663L10.4186 16.0542M20.7817 28.1663L17.0595 14.2748M3.77778 17.8336L8.64087 9.41941M3.77778 17.8336L10.4186 16.0542M8.64087 9.41941L17.0595 14.2748M8.64087 9.41941L15.2817 7.63999M17.0595 14.2748L10.4186 16.0542M17.0595 14.2748L19.4911 10.0677L15.2817 7.63999M10.4186 16.0542L15.2817 7.63999" stroke="white" stroke-width="1.25002"/>
<path d="M23.2433 27.8972L38.3483 14.9458M23.2433 27.8972L31.5069 14.2659M23.2433 27.8972L24.6655 13.5861M38.3483 14.9458L32.1862 7.43078M38.3483 14.9458L31.5069 14.2659M32.1862 7.43078L24.6655 13.5861M32.1862 7.43078L25.3447 6.75091L31.5069 14.2659M24.6655 13.5861L31.5069 14.2659" stroke="white" stroke-width="1.25002"/>
<path d="M21.3748 1.75L18.2498 2.37501L18.8748 5.50007L21.9998 8.62513L21.3748 5.50007V1.75Z" stroke="white" stroke-width="1.25002"/>
</svg>
